<svg width="113" height="113" viewBox="0 0 113 113" fill="none" xmlns="http://www.w3.org/2000/svg">
<path d="M12.8906 92.9505C16.5948 97.3351 20.9621 101.154 25.8619 104.258C34.8885 109.977 45.3326 113 56.0642 113C71.156 113 85.3445 107.123 96.016 96.4516C106.687 85.7801 112.564 71.5916 112.564 56.5001C112.564 41.4086 106.687 27.2196 96.016 16.5485C85.3445 5.87726 71.156 0.00024815 56.0642 0.000246831C44.4687 0.000245817 33.3245 3.48843 23.8363 10.0877C14.5722 16.5317 7.51246 25.4744 3.42058 35.9488L16.2671 40.9674C22.7155 24.4592 38.3375 13.7922 56.0647 13.7922C79.6142 13.7922 98.7732 32.9509 98.7732 56.5006C98.7732 80.0503 79.614 99.2088 56.0645 99.2088C44.1444 99.2088 33.1221 94.3658 25.2054 86.0642L40.2166 77.6691L20.6386 66.0059L1.06035 54.3419L0.748897 77.1286L0.436448 99.9153L12.8906 92.9505Z" fill="#4752D8"/>
</svg>
