<svg width="113" height="113" viewBox="0 0 113 113" fill="none" xmlns="http://www.w3.org/2000/svg">
<path d="M100.109 20.0494C96.4052 15.6649 92.0379 11.8462 87.1381 8.74227C78.1115 3.02309 67.6674 0 56.9358 0C41.844 0 27.6555 5.87701 16.984 16.5484C6.31257 27.2199 0.435547 41.4084 0.435547 56.4999C0.435547 71.5914 6.31257 85.7804 16.984 96.4515C27.6555 107.123 41.844 113 56.9358 113C68.5313 113 79.6755 109.512 89.1637 102.912C98.4278 96.4683 105.488 87.5256 109.579 77.0512L96.7329 72.0326C90.2845 88.5408 74.6625 99.2078 56.9353 99.2078C33.3858 99.2078 14.2268 80.0491 14.2268 56.4994C14.2268 32.9497 33.386 13.7912 56.9355 13.7912C68.8556 13.7912 79.8779 18.6342 87.7946 26.9358L72.7834 35.3309L92.3614 46.9941L111.94 58.6581L112.251 35.8714L112.564 13.0847L100.109 20.0494Z" fill="#4752D8"/>
</svg>
